<svg xmlns="http://www.w3.org/2000/svg" version="1.1" xmlns:xlink="http://www.w3.org/1999/xlink" xmlns:svgjs="http://svgjs.dev/svgjs" width="1000" height="1125" viewBox="0 0 1000 1125"><g transform="matrix(1,0,0,1,0,0)"><svg viewBox="0 0 320 360" data-background-color="#ffffff" preserveAspectRatio="xMidYMid meet" height="1125" width="1000" xmlns="http://www.w3.org/2000/svg" xmlns:xlink="http://www.w3.org/1999/xlink"><g id="tight-bounds" transform="matrix(1,0,0,1,0,0)"><svg viewBox="0 0 320 360" height="360" width="320"><g><svg></svg></g><g><svg viewBox="0 0 320 360" height="360" width="320"><g><path xmlns="http://www.w3.org/2000/svg" d="M320 187.111c0-45.764-20.238-86.866-52.203-114.908-28.043-31.964-69.145-52.203-114.908-52.203-84.302 0-152.889 68.587-152.889 152.889 0 45.753 20.231 86.848 52.185 114.891 28.043 31.975 69.152 52.22 114.926 52.22 0.299 0 0.59-0.021 0.889-0.021 0.299 0 0.59 0.021 0.889 0.021 83.456 0 151.111-67.655 151.111-151.111 0-0.299-0.021-0.59-0.021-0.889 0-0.299 0.021-0.59 0.021-0.889zM59.833 263.097c-15.093-21.255-24.071-47.143-24.256-75.097 0.48-72.928 59.492-131.943 132.423-132.423 27.954 0.185 53.845 9.163 75.097 24.256 24.366 23.627 39.57 56.64 39.57 93.056 0 71.559-58.219 129.778-129.778 129.778-36.416 0-69.429-15.204-93.056-39.57zM3.556 172.889c0-82.343 66.99-149.333 149.333-149.333 35.051 0 67.292 12.167 92.8 32.462-22.98-13.824-49.863-21.796-78.578-21.796-84.302 0-152.889 68.587-152.889 152.889 0 28.708 7.968 55.584 21.785 78.56-20.288-25.5-32.452-57.739-32.451-92.782zM167.111 318.667c-35.84 0-68.363-14.418-92.107-37.743 21.952 15.89 48.864 25.298 77.885 25.298 73.522 0 133.333-59.812 133.333-133.333 0-29.02-9.408-55.932-25.298-77.885 23.324 23.744 37.742 56.267 37.743 92.107 0 72.54-59.015 131.556-131.556 131.556z" fill="#ed2647" fill-rule="nonzero" stroke="none" stroke-width="1" stroke-linecap="butt" stroke-linejoin="miter" stroke-miterlimit="10" stroke-dasharray="" stroke-dashoffset="0" font-family="none" font-weight="none" font-size="none" text-anchor="none" style="mix-blend-mode: normal" data-fill-palette-color="tertiary"></path></g><g transform="matrix(1,0,0,1,64,126.08114558472553)"><svg viewBox="0 0 192 107.83770883054893" height="107.83770883054893" width="192"><g><svg viewBox="0 0 192 107.83770883054893" height="107.83770883054893" width="192"><g><svg viewBox="0 0 192 107.83770883054893" height="107.83770883054893" width="192"><g><svg viewBox="0 0 192 107.83770883054893" height="107.83770883054893" width="192"><g><svg viewBox="0 0 192 107.83770883054893" height="107.83770883054893" width="192"><g><svg viewBox="0 0 192 107.83770883054893" height="107.83770883054893" width="192"><g transform="matrix(1,0,0,1,0,0)"><svg width="192" viewBox="0.20000000298023224 -34.79999923706055 62.849998474121094 35.29999923706055" height="107.83770883054893" data-palette-color="#ed2647"><path d="M13.6-34.3L19-34.3 32.4 0 27.1 0 24.2-7.45 7.8-7.45 4.95 0 0.2 0 13.6-34.3ZM22.5-11.9L16.2-28.4 15.9-28.4 9.55-11.9 22.5-11.9ZM49.8-34.8Q53.8-34.8 56.8-33.15 59.8-31.5 61.42-28.43 63.05-25.35 63.05-21.15L63.05-21.15 58.15-21.15Q58.15-25.5 56-27.93 53.85-30.35 49.8-30.35L49.8-30.35Q45.3-30.35 42.95-27.58 40.6-24.8 40.6-19.4L40.6-19.4 40.6-14.9Q40.6-9.55 42.9-6.75 45.2-3.95 49.7-3.95L49.7-3.95Q53.9-3.95 56.12-6.35 58.35-8.75 58.35-13.05L58.35-13.05 63.05-13.05Q63.05-8.9 61.42-5.85 59.8-2.8 56.8-1.15 53.8 0.5 49.8 0.5L49.8 0.5Q43.15 0.5 39.42-3.58 35.7-7.65 35.7-14.9L35.7-14.9 35.7-19.4Q35.7-26.6 39.42-30.7 43.15-34.8 49.8-34.8L49.8-34.8Z" opacity="1" transform="matrix(1,0,0,1,0,0)" fill="#ed2647" class="undefined-text-0" data-fill-palette-color="primary" id="text-0"></path></svg></g></svg></g></svg></g></svg></g><g></g></svg></g></svg></g></svg></g></svg></g><defs></defs></svg><rect width="320" height="360" fill="none" stroke="none" visibility="hidden"></rect></g></svg></g></svg>